Coordinates
version=1
nRows=4
nColumns=107
inDegrees=yes

Units are S.I. units (second, meters, Newtons, ...)
If the header above contains a line with 'inDegrees', this indicates whether rotational values are in degrees (yes) or radians (no).

endheader
time	sternoclavicular_r2	sternoclavicular_r3	unrotscap_r3	unrotscap_r2	acromioclavicular_r2	acromioclavicular_r3	acromioclavicular_r1	unrothum_r1	unrothum_r3	unrothum_r2	elv_angle	shoulder_elv	shoulder1_r2	shoulder_rot	elbow_flexion	pro_sup	deviation	flexion	proximal_distal_r1	proximal_distal_r3	cmc_flexion	cmc_abduction	mp_flexion	ip_flexion	mcp2_flexion	mcp2_abduction	pm2_flexion	md2_flexion	mcp3_flexion	mcp3_abduction	pm3_flexion	md3_flexion	mcp4_flexion	mcp4_abduction	pm4_flexion	md4_flexion	mcp5_flexion	mcp5_abduction	pm5_flexion	md5_flexion	bicpt_tx	bicpt_ty	bicpt_tz	bicpt2_tx	bicpt2_ty	bicpt2_tz	ptpt_tx	ptpt_ty	ptpt_tz	FCUpt_tx	FCUpt_ty	FCUpt_tz	EDCpt_tx	EDCpt_ty	EDCpt_tz	APLpt_tx	APLpt_ty	APLpt_tz	FPLpt_tx	FPLpt_ty	FPLpt_tz	FPLpt2_tx	FPLpt2_ty	FPLpt2_tz	PEC1pt2_tx	PEC1pt2_ty	PEC1pt2_tz	PEC1pt3_tx	PEC1pt3_ty	PEC1pt3_tz	PEC2pt2_tx	PEC2pt2_ty	PEC2pt2_tz	PEC2pt3_tx	PEC2pt3_ty	PEC2pt3_tz	PEC3pt2_tx	PEC3pt2_ty	PEC3pt2_tz	PEC3pt3_tx	PEC3pt3_ty	PEC3pt3_tz	DELT2pt2a_tx	DELT2pt2a_ty	DELT2pt2a_tz	DELT2pt2_tx	DELT2pt2_ty	DELT2pt2_tz	LAT1pt2_tx	LAT1pt2_ty	LAT1pt2_tz	LAT1pt3_tx	LAT1pt3_ty	LAT1pt3_tz	LAT2pt2_tx	LAT2pt2_ty	LAT2pt2_tz	LAT2pt3_tx	LAT2pt3_ty	LAT2pt3_tz	LAT3pt2_tx	LAT3pt2_ty	LAT3pt2_tz	LAT3pt3_tx	LAT3pt3_ty	LAT3pt3_tz
      0.93333333	     -0.32469283	      0.13752456	     -0.13752456	      0.32469283	     -0.06574369	      0.53131741	      0.23882352	     -0.23882352	     -0.53131741	      0.06574369	     97.30345841	     76.87391433	     -1.69826572	    -19.10616392	     30.10197477	     34.15132604	      0.25158949	     -0.90383140	      0.28963310	     -0.45191570	     16.82418959	      0.80024352	    -40.74218214	    -52.81672189	     77.18408862	     13.51726495	     81.80916047	     70.46234156	     80.08235698	      5.53513763	     82.40050005	     50.26281045	     80.99720499	    -11.24170415	     90.10643258	     43.11273048	     81.30277434	    -13.94637768	     96.32541118	      5.46563121	      0.00089568	     -0.03105015	     -0.00485573	      0.01652437	     -0.01837735	     -0.00807042	      0.00502660	     -0.06653167	     -0.00280107	      0.00719668	     -0.18361188	     -0.00033203	     -0.00409815	      0.00114760	      0.00017914	      0.00024062	      0.00009625	      0.00048125	      0.00030800	      0.00092399	      0.00051974	      0.00001958	     -0.00026336	     -0.00031603	      0.00251976	      0.00884051	      0.00614992	     -0.00824260	      0.01990182	     -0.01887683	      0.00251976	      0.00884051	      0.00614992	      0.00055520	      0.01844976	     -0.00969466	      0.00397461	      0.00491609	      0.01603247	      0.00000000	      0.00790431	      0.00000000	     -0.00721761	     -0.03335477	     -0.00651816	      0.01325524	     -0.00040464	     -0.00299411	     -0.00089686	      0.01503313	     -0.00614992	      0.00247705	      0.02169555	     -0.01793726	     -0.00602180	      0.01302587	     -0.00550930	     -0.01255608	      0.02750380	     -0.03079230	     -0.02357469	      0.01456335	     -0.00738844	     -0.01563104	      0.03177458	     -0.03847970
      0.96666667	     -0.32382696	      0.13715781	     -0.13715781	      0.32382696	     -0.06556837	      0.52990051	      0.23818663	     -0.23818663	     -0.52990051	      0.06556837	     97.51938574	     76.66891026	     -1.70203437	    -20.09918210	     30.08343275	     35.50198481	      0.25790585	     -0.88654256	      0.29557171	     -0.44327128	     17.86724751	      0.49350144	    -39.79274156	    -48.37370967	     71.34188441	     13.53109383	     79.83443888	     69.65922711	     75.34042290	      5.99126618	     81.10916159	     50.22729896	     76.06016333	    -11.29869586	     87.14019174	     41.36102428	     74.73029806	    -13.91041537	     96.21316900	      5.48343220	      0.00089507	     -0.03104802	     -0.00485539	      0.01654289	     -0.01837231	     -0.00793603	      0.00492680	     -0.06659620	     -0.00290988	      0.00733050	     -0.18358576	     -0.00034688	     -0.00426023	      0.00120039	      0.00017323	      0.00024886	      0.00009954	      0.00049772	      0.00031854	      0.00095562	      0.00053754	      0.00001707	     -0.00026933	     -0.00032319	      0.00251304	      0.00881693	      0.00613352	     -0.00822062	      0.01984875	     -0.01882649	      0.00251304	      0.00881693	      0.00613352	      0.00055372	      0.01840055	     -0.00966881	      0.00396689	      0.00490298	      0.01601379	      0.00000000	      0.00786191	      0.00000000	     -0.00719836	     -0.03326582	     -0.00648296	      0.01383349	     -0.00043498	     -0.00333261	     -0.00089447	      0.01499304	     -0.00613352	      0.00247044	      0.02163769	     -0.01788943	     -0.00600574	      0.01299113	     -0.00549461	     -0.01252260	      0.02743046	     -0.03071018	     -0.02351182	      0.01452451	     -0.00736874	     -0.01558936	      0.03168984	     -0.03837708
      1.00000000	     -0.32383007	      0.13715913	     -0.13715913	      0.32383007	     -0.06556900	      0.52990561	      0.23818893	     -0.23818893	     -0.52990561	      0.06556900	     97.81718413	     76.66964784	     -1.70723193	    -20.43783374	     29.59520932	     35.97012607	      0.26115818	     -0.88593968	      0.29860362	     -0.44296984	     19.81520827	      0.08391387	    -39.35027784	    -47.41802927	     65.43636282	     13.56506539	     76.75422125	     69.07801801	     70.42643123	      6.63118131	     78.56730573	     49.74343112	     70.26402409	    -11.02583505	     83.95531365	     40.56391934	     67.79404221	    -13.90029464	     93.88764113	      5.46819345	      0.00087892	     -0.03099206	     -0.00484637	      0.01654830	     -0.01823968	     -0.00788884	      0.00489221	     -0.06661857	     -0.00294759	      0.00737702	     -0.18357659	     -0.00035170	     -0.00431641	      0.00121882	      0.00017095	      0.00024915	      0.00009966	      0.00049830	      0.00031891	      0.00095673	      0.00053816	      0.00001228	     -0.00027726	     -0.00033272	      0.00251306	      0.00881702	      0.00613358	     -0.00822070	      0.01984894	     -0.01882667	      0.00251306	      0.00881702	      0.00613358	      0.00055373	      0.01840073	     -0.00966890	      0.00396692	      0.00490303	      0.01601386	      0.00000000	      0.00786207	      0.00000000	     -0.00719843	     -0.03326614	     -0.00648309	      0.01402766	     -0.00044542	     -0.00345164	     -0.00089448	      0.01499319	     -0.00613358	      0.00247047	      0.02163790	     -0.01788960	     -0.00600579	      0.01299126	     -0.00549466	     -0.01252272	      0.02743072	     -0.03071048	     -0.02351205	      0.01452465	     -0.00736881	     -0.01558951	      0.03169015	     -0.03837745
      1.03333333	     -0.32356221	      0.13704568	     -0.13704568	      0.32356221	     -0.06551476	      0.52946728	      0.23799190	     -0.23799190	     -0.52946728	      0.06551476	     98.09386666	     76.60622817	     -1.71206095	    -20.94653812	     29.22015476	     36.23016412	      0.26115853	     -0.87024244	      0.29860362	     -0.43512122	     21.29812125	     -0.12509806	    -38.53576261	    -45.63167714	     58.35824926	     13.56334320	     72.29878501	     68.17641957	     64.27107181	      7.07876412	     75.16340678	     49.11924822	     62.81718749	    -10.54877142	     80.65025333	     40.13300362	     59.12988005	    -13.92087258	     90.75781599	      5.46622710	      0.00086651	     -0.03094908	     -0.00483945	      0.01655111	     -0.01813780	     -0.00786250	      0.00487300	     -0.06663099	     -0.00296853	      0.00740289	     -0.18357147	     -0.00035431	     -0.00434761	      0.00122908	      0.00016963	      0.00025618	      0.00010247	      0.00051236	      0.00032791	      0.00098373	      0.00055335	      0.00000866	     -0.00028046	     -0.00033655	      0.00251098	      0.00880972	      0.00612850	     -0.00821390	      0.01983252	     -0.01881110	      0.00251098	      0.00880972	      0.00612850	      0.00055327	      0.01838551	     -0.00966090	      0.00396453	      0.00489898	      0.01600806	      0.00000000	      0.00784897	      0.00000000	     -0.00719248	     -0.03323862	     -0.00647222	      0.01431650	     -0.00046118	     -0.00363376	     -0.00089374	      0.01498079	     -0.00612850	      0.00246842	      0.02162000	     -0.01787480	     -0.00600083	      0.01298051	     -0.00549012	     -0.01251236	      0.02740803	     -0.03068508	     -0.02349260	      0.01451264	     -0.00736272	     -0.01557661	      0.03166393	     -0.03834571
